HIERARCHY
ROOT Hips
{
    OFFSET 0.000000 0.000000 0.000000
    CHANNELS 6 Xposition Yposition Zposition Zrotation Xrotation Yrotation
    JOINT Spine
    {
        OFFSET -0.000000 14.517291 0.000000
        CHANNELS 3 Zrotation Xrotation Yrotation
        JOINT Spine1
        {
            OFFSET -0.000000 37.558300 0.000000
            CHANNELS 3 Zrotation Xrotation Yrotation
            JOINT Neck
            {
                OFFSET -0.000000 37.404057 3.400369
                CHANNELS 3 Zrotation Xrotation Yrotation
                JOINT Head
                {
                    OFFSET -0.000000 24.785618 -3.540803
                    CHANNELS 3 Zrotation Xrotation Yrotation
                    End Site
                    {
                        OFFSET -0.000000 35.408028 0.000000
                    }
                }
            }
            JOINT LeftShoulder
            {
                OFFSET 6.992933 33.973492 -0.192664
                CHANNELS 3 Zrotation Xrotation Yrotation
                JOINT LeftArm
                {
                    OFFSET 21.527611 0.000000 0.000000
                    CHANNELS 3 Zrotation Xrotation Yrotation
                    JOINT LeftForeArm
                    {
                        OFFSET 56.353916 0.000000 0.000000
                        CHANNELS 3 Zrotation Xrotation Yrotation
                        JOINT LeftHand
                        {
                            OFFSET 47.774071 0.000000 0.000000
                            CHANNELS 3 Zrotation Xrotation Yrotation
                            End Site
                            {
                                OFFSET 26.556021 0.000000 0.000000
                            }
                        }
                    }
                }
            }
            JOINT RightShoulder
            {
                OFFSET -7.065357 33.973492 -0.192664
                CHANNELS 3 Zrotation Xrotation Yrotation
                JOINT RightArm
                {
                    OFFSET -21.527611 0.000000 0.000000
                    CHANNELS 3 Zrotation Xrotation Yrotation
                    JOINT RightForeArm
                    {
                        OFFSET -56.353916 0.000000 0.000000
                        CHANNELS 3 Zrotation Xrotation Yrotation
                        JOINT RightHand
                        {
                            OFFSET -47.774071 0.000000 0.000000
                            CHANNELS 3 Zrotation Xrotation Yrotation
                            End Site
                            {
                                OFFSET -26.556021 0.000000 0.000000
                            }
                        }
                    }
                }
            }
        }
    }
    JOINT LeftUpLeg
    {
        OFFSET 17.704014 0.000000 0.000000
        CHANNELS 3 Zrotation Xrotation Yrotation
        JOINT LeftLeg
        {
            OFFSET -0.000000 -81.181816 0.000000
            CHANNELS 3 Zrotation Xrotation Yrotation
            JOINT LeftFoot
            {
                OFFSET -0.000000 -62.821102 0.000000
                CHANNELS 3 Zrotation Xrotation Yrotation
                JOINT LeftToeBase
                {
                    OFFSET -0.000000 -11.507608 26.556021
                    CHANNELS 3 Zrotation Xrotation Yrotation
                    End Site
                    {
                        OFFSET -0.000000 0.000000 7.081605
                    }
                }
            }
        }
    }
    JOINT RightUpLeg
    {
        OFFSET -17.704014 0.000000 0.000000
        CHANNELS 3 Zrotation Xrotation Yrotation
        JOINT RightLeg
        {
            OFFSET -0.000000 -81.181816 0.000000
            CHANNELS 3 Zrotation Xrotation Yrotation
            JOINT RightFoot
            {
                OFFSET -0.000000 -62.821102 0.000000
                CHANNELS 3 Zrotation Xrotation Yrotation
                JOINT RightToeBase
                {
                    OFFSET -0.000000 -11.507608 26.556021
                    CHANNELS 3 Zrotation Xrotation Yrotation
                    End Site
                    {
                        OFFSET -0.000000 0.000000 7.081605
                    }
                }
            }
        }
    }
}
MOTION
Frames:    5
Frame Time:    0.008333
-35.977833    171.146240    -22.177343    -17.582762    -23.985300    42.383720    2.497153    12.734637    -6.362209    -17.099007    6.978085    -0.971205    13.207399    7.664101    -4.054209    15.068433    -22.135880    -0.292241    4.696508    11.561591    -26.090340    -30.340792    13.048011    -58.647118    4.405719    -40.373314    -102.785172    -10.069529    -34.897354    -15.746145    4.938985    4.041030    -8.321784    29.164410    5.573665    25.845036    -28.180679    -15.269972    63.226700    -4.910624    1.129484    28.844639    34.091003    -7.665491    6.146038    -1.878676    26.606350    -19.902884    1.021979    -9.629080    31.818815    0.000000    0.000000    0.000000    -85.939972    -50.149502    -54.199238    6.373330    20.116322    -4.931331    13.619997    20.736788    -20.364527    0.000000    0.000000    0.000000    
-35.968971    171.153763    -22.131559    -17.576225    -24.026320    42.429798    2.546574    12.743871    -6.343682    -17.110165    6.972548    -0.963246    13.229933    7.619805    -4.080122    14.885049    -22.125942    -0.388929    4.676635    11.572183    -26.065683    -29.858185    13.566777    -58.833664    5.034334    -41.273731    -102.389748    -10.297531    -35.227470    -15.840529    4.936556    4.013402    -8.345352    29.229792    5.521545    25.735928    -28.138462    -15.299075    63.376896    -4.903649    1.127156    28.818657    34.094875    -7.673983    6.002302    -1.891247    26.651424    -19.964289    1.151765    -9.587824    31.933716    0.000000    0.000000    0.000000    -85.862885    -50.069427    -54.172909    6.389264    20.113699    -4.890254    13.658730    20.646637    -20.400072    0.000000    0.000000    0.000000    
-35.960896    171.160828    -22.095957    -17.579742    -24.062304    42.458702    2.584093    12.737996    -6.309249    -17.081850    6.980623    -0.950934    13.227120    7.618841    -4.103175    14.742127    -22.183306    -0.453401    4.668921    11.599826    -26.044893    -29.996180    13.510912    -58.871365    4.964756    -41.130955    -102.440804    -10.281460    -35.142387    -15.818054    4.932564    4.024962    -8.372183    29.257614    5.541563    25.675295    -28.208529    -15.423091    63.412884    -4.869662    1.068670    28.789845    34.103973    -7.684725    5.858993    -1.918238    26.690962    -19.987770    1.290721    -9.527225    32.022339    0.000000    0.000000    0.000000    -85.787117    -50.002594    -54.141361    6.405965    20.104048    -4.849718    13.691709    20.558214    -20.435892    0.000000    0.000000    0.000000    
-35.939331    171.167374    -22.059641    -17.559528    -24.107782    42.506172    2.624588    12.746478    -6.283795    -17.063511    6.998743    -0.939353    13.267831    7.633047    -4.112960    14.583468    -22.270428    -0.507440    4.697879    11.621296    -26.028942    -30.814762    12.854201    -58.716717    4.086687    -39.837929    -103.025192    -9.946028    -34.656277    -15.629527    4.943557    3.991401    -8.376382    29.290998    5.489364    25.584929    -28.171196    -15.461822    63.510155    -4.851768    1.044248    28.749790    34.098801    -7.674151    5.680849    -1.958052    26.732788    -19.993086    1.223508    -9.553118    32.153427    0.000000    0.000000    0.000000    -85.703903    -49.918068    -54.062508    6.442597    20.096518    -4.834056    13.722650    20.457958    -20.462475    0.000000    0.000000    0.000000    
-35.911251    171.172852    -22.034624    -17.535789    -24.140411    42.549286    2.645373    12.757294    -6.257999    -17.016365    7.001113    -0.932530    13.306689    7.668119    -4.118372    14.446029    -22.361490    -0.546841    4.735049    11.677142    -26.016211    -30.881166    12.839581    -58.764122    4.060671    -39.810879    -103.058563    -9.927308    -34.656261    -15.598509    4.962185    3.986144    -8.380773    29.292015    5.491128    25.525946    -28.227556    -15.538021    63.515106    -4.844548    1.005825    28.774176    34.081409    -7.672844    5.499827    -1.998139    26.773115    -20.000259    1.331545    -9.509359    32.256100    0.000000    0.000000    0.000000    -85.640205    -49.841244    -53.998280    6.471121    20.085741    -4.838410    13.744716    20.382528    -20.481251    0.000000    0.000000    0.000000    
